# xmcd
# Copyright (C) 1995-1998 Ti Kan
#
# Track frame offsets:
#       150
#       28338
#       55126
#       80583
#       105900
#       133213
#       160352
#       176713
#       195406
#       226411
#
# Disc length: 3614 seconds
#
# Revision: 0
# Processed by: cddbd v1.5.2PL0 Copyright (c) Steve Scherf et al.
# Submitted via: CD-Import v1.0
#
DISCID=820e1c0a
DTITLE=Rokia Traoré - Bowmboi
DYEAR=2003
DGENRE=
TTITLE0=M'bifo
TTITLE1=Sara
TTITLE2=Kote Don
TTITLE3=Mariama
TTITLE4=Maniam
TTITLE5=Deli
TTITLE6=Nienafing
TTITLE7=Kele Mandi
TTITLE8=Kanou
TTITLE9=Bowmboi
EXTD=
EXTT0=
EXTT1=
EXTT2=
EXTT3=
EXTT4=
EXTT5=
EXTT6=
EXTT7=
EXTT8=
EXTT9=
PLAYORDER=
